<mxfile>
    <diagram id="Y7E4iQfiaBOq1pWMwXan" name="Page-1">
        <mxGraphModel dx="1217" dy="570" grid="1" gridSize="10" guides="1" tooltips="1" connect="1" arrows="1" fold="1" page="1" pageScale="1" pageWidth="850" pageHeight="1100" math="0" shadow="0">
            <root>
                <mxCell id="0"/>
                <mxCell id="1" parent="0"/>
                <mxCell id="8" style="rounded=0;orthogonalLoop=1;jettySize=auto;html=1;entryX=1;entryY=0;entryDx=0;entryDy=0;fontSize=22;endArrow=none;endFill=0;" edge="1" parent="1" source="2" target="3">
                    <mxGeometry relative="1" as="geometry"/>
                </mxCell>
                <mxCell id="9" style="edgeStyle=none;rounded=0;orthogonalLoop=1;jettySize=auto;html=1;fontSize=22;endArrow=none;endFill=0;" edge="1" parent="1" source="2" target="4">
                    <mxGeometry relative="1" as="geometry"/>
                </mxCell>
                <mxCell id="2" value="9" style="ellipse;whiteSpace=wrap;html=1;aspect=fixed;sketch=1;fillColor=#1ba1e2;strokeColor=#006EAF;fontSize=22;fontColor=#000000;" vertex="1" parent="1">
                    <mxGeometry x="240" y="120" width="40" height="40" as="geometry"/>
                </mxCell>
                <mxCell id="10" style="edgeStyle=none;rounded=0;orthogonalLoop=1;jettySize=auto;html=1;entryX=1;entryY=0;entryDx=0;entryDy=0;fontSize=22;endArrow=none;endFill=0;" edge="1" parent="1" source="3" target="5">
                    <mxGeometry relative="1" as="geometry"/>
                </mxCell>
                <mxCell id="11" style="edgeStyle=none;rounded=0;orthogonalLoop=1;jettySize=auto;html=1;entryX=0.284;entryY=0.086;entryDx=0;entryDy=0;fontSize=22;endArrow=none;endFill=0;entryPerimeter=0;" edge="1" parent="1" source="3" target="6">
                    <mxGeometry relative="1" as="geometry"/>
                </mxCell>
                <mxCell id="3" value="5" style="ellipse;whiteSpace=wrap;html=1;aspect=fixed;sketch=1;fillColor=#1ba1e2;strokeColor=#006EAF;fontSize=22;fontColor=#000000;" vertex="1" parent="1">
                    <mxGeometry x="180" y="180" width="40" height="40" as="geometry"/>
                </mxCell>
                <mxCell id="12" style="edgeStyle=none;rounded=0;orthogonalLoop=1;jettySize=auto;html=1;fontSize=22;endArrow=none;endFill=0;" edge="1" parent="1" source="4" target="7">
                    <mxGeometry relative="1" as="geometry"/>
                </mxCell>
                <mxCell id="4" value="4" style="ellipse;whiteSpace=wrap;html=1;aspect=fixed;sketch=1;fillColor=#1ba1e2;strokeColor=#006EAF;fontSize=22;fontColor=#000000;" vertex="1" parent="1">
                    <mxGeometry x="300" y="180" width="40" height="40" as="geometry"/>
                </mxCell>
                <mxCell id="5" value="1" style="ellipse;whiteSpace=wrap;html=1;aspect=fixed;sketch=1;fillColor=#1ba1e2;strokeColor=#006EAF;fontSize=22;fontColor=#000000;" vertex="1" parent="1">
                    <mxGeometry x="140" y="250" width="40" height="40" as="geometry"/>
                </mxCell>
                <mxCell id="6" value="3" style="ellipse;whiteSpace=wrap;html=1;aspect=fixed;sketch=1;fillColor=#1ba1e2;strokeColor=#006EAF;fontSize=22;fontColor=#000000;" vertex="1" parent="1">
                    <mxGeometry x="220" y="250" width="40" height="40" as="geometry"/>
                </mxCell>
                <mxCell id="7" value="2" style="ellipse;whiteSpace=wrap;html=1;aspect=fixed;sketch=1;fillColor=#1ba1e2;strokeColor=#006EAF;fontSize=22;fontColor=#000000;" vertex="1" parent="1">
                    <mxGeometry x="270" y="250" width="40" height="40" as="geometry"/>
                </mxCell>
                <mxCell id="13" value="最大堆 (Max-heap) " style="text;html=1;align=center;verticalAlign=middle;resizable=0;points=[];autosize=1;strokeColor=none;fontSize=13;" vertex="1" parent="1">
                    <mxGeometry x="190" y="320" width="140" height="20" as="geometry"/>
                </mxCell>
                <mxCell id="14" style="rounded=0;orthogonalLoop=1;jettySize=auto;html=1;entryX=1;entryY=0;entryDx=0;entryDy=0;fontSize=22;endArrow=none;endFill=0;" edge="1" parent="1" source="16" target="19">
                    <mxGeometry relative="1" as="geometry"/>
                </mxCell>
                <mxCell id="15" style="edgeStyle=none;rounded=0;orthogonalLoop=1;jettySize=auto;html=1;fontSize=22;endArrow=none;endFill=0;" edge="1" parent="1" source="16" target="21">
                    <mxGeometry relative="1" as="geometry"/>
                </mxCell>
                <mxCell id="16" value="1" style="ellipse;whiteSpace=wrap;html=1;aspect=fixed;sketch=1;fillColor=#1ba1e2;strokeColor=#006EAF;fontSize=22;fontColor=#000000;" vertex="1" parent="1">
                    <mxGeometry x="520" y="120" width="40" height="40" as="geometry"/>
                </mxCell>
                <mxCell id="17" style="edgeStyle=none;rounded=0;orthogonalLoop=1;jettySize=auto;html=1;entryX=1;entryY=0;entryDx=0;entryDy=0;fontSize=22;endArrow=none;endFill=0;" edge="1" parent="1" source="19" target="22">
                    <mxGeometry relative="1" as="geometry"/>
                </mxCell>
                <mxCell id="18" style="edgeStyle=none;rounded=0;orthogonalLoop=1;jettySize=auto;html=1;entryX=0.284;entryY=0.086;entryDx=0;entryDy=0;fontSize=22;endArrow=none;endFill=0;entryPerimeter=0;" edge="1" parent="1" source="19" target="23">
                    <mxGeometry relative="1" as="geometry"/>
                </mxCell>
                <mxCell id="19" value="2" style="ellipse;whiteSpace=wrap;html=1;aspect=fixed;sketch=1;fillColor=#1ba1e2;strokeColor=#006EAF;fontSize=22;fontColor=#000000;" vertex="1" parent="1">
                    <mxGeometry x="460" y="180" width="40" height="40" as="geometry"/>
                </mxCell>
                <mxCell id="20" style="edgeStyle=none;rounded=0;orthogonalLoop=1;jettySize=auto;html=1;fontSize=22;endArrow=none;endFill=0;" edge="1" parent="1" source="21" target="24">
                    <mxGeometry relative="1" as="geometry"/>
                </mxCell>
                <mxCell id="21" value="3" style="ellipse;whiteSpace=wrap;html=1;aspect=fixed;sketch=1;fillColor=#1ba1e2;strokeColor=#006EAF;fontSize=22;fontColor=#000000;" vertex="1" parent="1">
                    <mxGeometry x="580" y="180" width="40" height="40" as="geometry"/>
                </mxCell>
                <mxCell id="22" value="4" style="ellipse;whiteSpace=wrap;html=1;aspect=fixed;sketch=1;fillColor=#1ba1e2;strokeColor=#006EAF;fontSize=22;fontColor=#000000;" vertex="1" parent="1">
                    <mxGeometry x="420" y="250" width="40" height="40" as="geometry"/>
                </mxCell>
                <mxCell id="23" value="5" style="ellipse;whiteSpace=wrap;html=1;aspect=fixed;sketch=1;fillColor=#1ba1e2;strokeColor=#006EAF;fontSize=22;fontColor=#000000;" vertex="1" parent="1">
                    <mxGeometry x="500" y="250" width="40" height="40" as="geometry"/>
                </mxCell>
                <mxCell id="24" value="9" style="ellipse;whiteSpace=wrap;html=1;aspect=fixed;sketch=1;fillColor=#1ba1e2;strokeColor=#006EAF;fontSize=22;fontColor=#000000;" vertex="1" parent="1">
                    <mxGeometry x="550" y="250" width="40" height="40" as="geometry"/>
                </mxCell>
                <mxCell id="25" value="最小堆 (Min-heap) " style="text;html=1;align=center;verticalAlign=middle;resizable=0;points=[];autosize=1;strokeColor=none;fontSize=13;" vertex="1" parent="1">
                    <mxGeometry x="475" y="320" width="130" height="20" as="geometry"/>
                </mxCell>
            </root>
        </mxGraphModel>
    </diagram>
    <diagram id="t7gDynj0hpRwfnZ5_ozT" name="heapify-1">
        <mxGraphModel dx="839" dy="393" grid="1" gridSize="10" guides="1" tooltips="1" connect="1" arrows="1" fold="1" page="1" pageScale="1" pageWidth="850" pageHeight="1100" math="0" shadow="0">
            <root>
                <mxCell id="kqcIvL9qf1m2o4pXu-eM-0"/>
                <mxCell id="kqcIvL9qf1m2o4pXu-eM-1" parent="kqcIvL9qf1m2o4pXu-eM-0"/>
                <mxCell id="kqcIvL9qf1m2o4pXu-eM-2" value="" style="shape=table;html=1;whiteSpace=wrap;startSize=0;container=1;collapsible=0;childLayout=tableLayout;sketch=1;fontSize=18;fillColor=#60a917;strokeColor=#2D7600;fontColor=#ffffff;" vertex="1" parent="kqcIvL9qf1m2o4pXu-eM-1">
                    <mxGeometry x="40" y="40" width="360" height="40" as="geometry"/>
                </mxCell>
                <mxCell id="kqcIvL9qf1m2o4pXu-eM-3" value="" style="shape=partialRectangle;html=1;whiteSpace=wrap;collapsible=0;dropTarget=0;pointerEvents=0;fillColor=none;top=0;left=0;bottom=0;right=0;points=[[0,0.5],[1,0.5]];portConstraint=eastwest;fontSize=18;" vertex="1" parent="kqcIvL9qf1m2o4pXu-eM-2">
                    <mxGeometry width="360" height="40" as="geometry"/>
                </mxCell>
                <mxCell id="kqcIvL9qf1m2o4pXu-eM-4" value="3" style="shape=partialRectangle;html=1;whiteSpace=wrap;connectable=0;overflow=hidden;fillColor=none;top=0;left=0;bottom=0;right=0;fontSize=18;" vertex="1" parent="kqcIvL9qf1m2o4pXu-eM-3">
                    <mxGeometry width="60" height="40" as="geometry"/>
                </mxCell>
                <mxCell id="kqcIvL9qf1m2o4pXu-eM-5" value="&lt;font style=&quot;font-size: 18px;&quot;&gt;9&lt;/font&gt;" style="shape=partialRectangle;html=1;whiteSpace=wrap;connectable=0;overflow=hidden;fillColor=none;top=0;left=0;bottom=0;right=0;fontSize=18;" vertex="1" parent="kqcIvL9qf1m2o4pXu-eM-3">
                    <mxGeometry x="60" width="60" height="40" as="geometry"/>
                </mxCell>
                <mxCell id="kqcIvL9qf1m2o4pXu-eM-6" value="2" style="shape=partialRectangle;html=1;whiteSpace=wrap;connectable=0;overflow=hidden;fillColor=none;top=0;left=0;bottom=0;right=0;fontSize=18;" vertex="1" parent="kqcIvL9qf1m2o4pXu-eM-3">
                    <mxGeometry x="120" width="60" height="40" as="geometry"/>
                </mxCell>
                <mxCell id="kqcIvL9qf1m2o4pXu-eM-7" value="1" style="shape=partialRectangle;html=1;whiteSpace=wrap;connectable=0;overflow=hidden;fillColor=none;top=0;left=0;bottom=0;right=0;fontSize=18;" vertex="1" parent="kqcIvL9qf1m2o4pXu-eM-3">
                    <mxGeometry x="180" width="60" height="40" as="geometry"/>
                </mxCell>
                <mxCell id="kqcIvL9qf1m2o4pXu-eM-8" value="4" style="shape=partialRectangle;html=1;whiteSpace=wrap;connectable=0;overflow=hidden;fillColor=none;top=0;left=0;bottom=0;right=0;fontSize=18;" vertex="1" parent="kqcIvL9qf1m2o4pXu-eM-3">
                    <mxGeometry x="240" width="60" height="40" as="geometry"/>
                </mxCell>
                <mxCell id="kqcIvL9qf1m2o4pXu-eM-9" value="5" style="shape=partialRectangle;html=1;whiteSpace=wrap;connectable=0;overflow=hidden;fillColor=none;top=0;left=0;bottom=0;right=0;fontSize=18;" vertex="1" parent="kqcIvL9qf1m2o4pXu-eM-3">
                    <mxGeometry x="300" width="60" height="40" as="geometry"/>
                </mxCell>
                <mxCell id="kqcIvL9qf1m2o4pXu-eM-11" value="" style="shape=table;html=1;whiteSpace=wrap;startSize=0;container=1;collapsible=0;childLayout=tableLayout;fillColor=none;strokeColor=none;" vertex="1" parent="kqcIvL9qf1m2o4pXu-eM-1">
                    <mxGeometry x="40" y="80" width="360" height="40" as="geometry"/>
                </mxCell>
                <mxCell id="kqcIvL9qf1m2o4pXu-eM-12" value="" style="shape=partialRectangle;html=1;whiteSpace=wrap;collapsible=0;dropTarget=0;pointerEvents=0;fillColor=none;top=0;left=0;bottom=0;right=0;points=[[0,0.5],[1,0.5]];portConstraint=eastwest;" vertex="1" parent="kqcIvL9qf1m2o4pXu-eM-11">
                    <mxGeometry width="360" height="40" as="geometry"/>
                </mxCell>
                <mxCell id="kqcIvL9qf1m2o4pXu-eM-13" value="0" style="shape=partialRectangle;html=1;whiteSpace=wrap;connectable=0;overflow=hidden;fillColor=none;top=0;left=0;bottom=0;right=0;" vertex="1" parent="kqcIvL9qf1m2o4pXu-eM-12">
                    <mxGeometry width="60" height="40" as="geometry"/>
                </mxCell>
                <mxCell id="kqcIvL9qf1m2o4pXu-eM-14" value="1" style="shape=partialRectangle;html=1;whiteSpace=wrap;connectable=0;overflow=hidden;fillColor=none;top=0;left=0;bottom=0;right=0;" vertex="1" parent="kqcIvL9qf1m2o4pXu-eM-12">
                    <mxGeometry x="60" width="60" height="40" as="geometry"/>
                </mxCell>
                <mxCell id="kqcIvL9qf1m2o4pXu-eM-15" value="2" style="shape=partialRectangle;html=1;whiteSpace=wrap;connectable=0;overflow=hidden;fillColor=none;top=0;left=0;bottom=0;right=0;" vertex="1" parent="kqcIvL9qf1m2o4pXu-eM-12">
                    <mxGeometry x="120" width="60" height="40" as="geometry"/>
                </mxCell>
                <mxCell id="kqcIvL9qf1m2o4pXu-eM-16" value="3" style="shape=partialRectangle;html=1;whiteSpace=wrap;connectable=0;overflow=hidden;fillColor=none;top=0;left=0;bottom=0;right=0;" vertex="1" parent="kqcIvL9qf1m2o4pXu-eM-12">
                    <mxGeometry x="180" width="60" height="40" as="geometry"/>
                </mxCell>
                <mxCell id="kqcIvL9qf1m2o4pXu-eM-17" value="4" style="shape=partialRectangle;html=1;whiteSpace=wrap;connectable=0;overflow=hidden;fillColor=none;top=0;left=0;bottom=0;right=0;" vertex="1" parent="kqcIvL9qf1m2o4pXu-eM-12">
                    <mxGeometry x="240" width="60" height="40" as="geometry"/>
                </mxCell>
                <mxCell id="kqcIvL9qf1m2o4pXu-eM-18" value="5" style="shape=partialRectangle;html=1;whiteSpace=wrap;connectable=0;overflow=hidden;fillColor=none;top=0;left=0;bottom=0;right=0;" vertex="1" parent="kqcIvL9qf1m2o4pXu-eM-12">
                    <mxGeometry x="300" width="60" height="40" as="geometry"/>
                </mxCell>
            </root>
        </mxGraphModel>
    </diagram>
    <diagram id="Er3TBcY3ToPlYUrqbDX4" name="heapify-2">
        <mxGraphModel dx="1217" dy="570" grid="1" gridSize="10" guides="1" tooltips="1" connect="1" arrows="1" fold="1" page="1" pageScale="1" pageWidth="850" pageHeight="1100" math="0" shadow="0">
            <root>
                <mxCell id="2v2k3Q8E73bp4hUca9CG-0"/>
                <mxCell id="2v2k3Q8E73bp4hUca9CG-1" parent="2v2k3Q8E73bp4hUca9CG-0"/>
                <mxCell id="0Q4chrJ4-TKzll_FZwnO-0" style="rounded=0;orthogonalLoop=1;jettySize=auto;html=1;entryX=1;entryY=0;entryDx=0;entryDy=0;fontSize=22;endArrow=none;endFill=0;fontColor=#000000;" edge="1" parent="2v2k3Q8E73bp4hUca9CG-1" source="0Q4chrJ4-TKzll_FZwnO-2" target="0Q4chrJ4-TKzll_FZwnO-5">
                    <mxGeometry relative="1" as="geometry"/>
                </mxCell>
                <mxCell id="0Q4chrJ4-TKzll_FZwnO-1" style="edgeStyle=none;rounded=0;orthogonalLoop=1;jettySize=auto;html=1;fontSize=22;endArrow=none;endFill=0;fontColor=#000000;" edge="1" parent="2v2k3Q8E73bp4hUca9CG-1" source="0Q4chrJ4-TKzll_FZwnO-2" target="0Q4chrJ4-TKzll_FZwnO-7">
                    <mxGeometry relative="1" as="geometry"/>
                </mxCell>
                <mxCell id="0Q4chrJ4-TKzll_FZwnO-2" value="3" style="ellipse;whiteSpace=wrap;html=1;aspect=fixed;sketch=1;fillColor=#60a917;strokeColor=#2D7600;fontSize=22;fontColor=#000000;" vertex="1" parent="2v2k3Q8E73bp4hUca9CG-1">
                    <mxGeometry x="240" y="120" width="40" height="40" as="geometry"/>
                </mxCell>
                <mxCell id="0Q4chrJ4-TKzll_FZwnO-3" style="edgeStyle=none;rounded=0;orthogonalLoop=1;jettySize=auto;html=1;entryX=1;entryY=0;entryDx=0;entryDy=0;fontSize=22;endArrow=none;endFill=0;fontColor=#000000;" edge="1" parent="2v2k3Q8E73bp4hUca9CG-1" source="0Q4chrJ4-TKzll_FZwnO-5" target="0Q4chrJ4-TKzll_FZwnO-8">
                    <mxGeometry relative="1" as="geometry"/>
                </mxCell>
                <mxCell id="0Q4chrJ4-TKzll_FZwnO-4" style="edgeStyle=none;rounded=0;orthogonalLoop=1;jettySize=auto;html=1;entryX=0.284;entryY=0.086;entryDx=0;entryDy=0;fontSize=22;endArrow=none;endFill=0;entryPerimeter=0;fontColor=#000000;" edge="1" parent="2v2k3Q8E73bp4hUca9CG-1" source="0Q4chrJ4-TKzll_FZwnO-5" target="0Q4chrJ4-TKzll_FZwnO-9">
                    <mxGeometry relative="1" as="geometry"/>
                </mxCell>
                <mxCell id="0Q4chrJ4-TKzll_FZwnO-5" value="9" style="ellipse;whiteSpace=wrap;html=1;aspect=fixed;sketch=1;fillColor=#60a917;strokeColor=#2D7600;fontSize=22;fontColor=#000000;" vertex="1" parent="2v2k3Q8E73bp4hUca9CG-1">
                    <mxGeometry x="180" y="180" width="40" height="40" as="geometry"/>
                </mxCell>
                <mxCell id="0Q4chrJ4-TKzll_FZwnO-6" style="edgeStyle=none;rounded=0;orthogonalLoop=1;jettySize=auto;html=1;fontSize=22;endArrow=none;endFill=0;fontColor=#000000;" edge="1" parent="2v2k3Q8E73bp4hUca9CG-1" source="0Q4chrJ4-TKzll_FZwnO-7" target="0Q4chrJ4-TKzll_FZwnO-10">
                    <mxGeometry relative="1" as="geometry"/>
                </mxCell>
                <mxCell id="0Q4chrJ4-TKzll_FZwnO-7" value="2" style="ellipse;whiteSpace=wrap;html=1;aspect=fixed;sketch=1;fillColor=#60a917;strokeColor=#2D7600;fontSize=22;fontColor=#000000;" vertex="1" parent="2v2k3Q8E73bp4hUca9CG-1">
                    <mxGeometry x="300" y="180" width="40" height="40" as="geometry"/>
                </mxCell>
                <mxCell id="0Q4chrJ4-TKzll_FZwnO-8" value="1" style="ellipse;whiteSpace=wrap;html=1;aspect=fixed;sketch=1;fillColor=#60a917;strokeColor=#2D7600;fontSize=22;fontColor=#000000;" vertex="1" parent="2v2k3Q8E73bp4hUca9CG-1">
                    <mxGeometry x="140" y="250" width="40" height="40" as="geometry"/>
                </mxCell>
                <mxCell id="0Q4chrJ4-TKzll_FZwnO-9" value="4" style="ellipse;whiteSpace=wrap;html=1;aspect=fixed;sketch=1;fillColor=#60a917;strokeColor=#2D7600;fontSize=22;fontColor=#000000;" vertex="1" parent="2v2k3Q8E73bp4hUca9CG-1">
                    <mxGeometry x="220" y="250" width="40" height="40" as="geometry"/>
                </mxCell>
                <mxCell id="0Q4chrJ4-TKzll_FZwnO-10" value="5" style="ellipse;whiteSpace=wrap;html=1;aspect=fixed;sketch=1;fillColor=#60a917;strokeColor=#2D7600;fontSize=22;fontColor=#000000;" vertex="1" parent="2v2k3Q8E73bp4hUca9CG-1">
                    <mxGeometry x="270" y="250" width="40" height="40" as="geometry"/>
                </mxCell>
                <mxCell id="0Q4chrJ4-TKzll_FZwnO-11" value="0" style="text;html=1;align=center;verticalAlign=middle;resizable=0;points=[];autosize=1;strokeColor=none;fontSize=18;fontColor=#000000;" vertex="1" parent="2v2k3Q8E73bp4hUca9CG-1">
                    <mxGeometry x="245" y="85" width="30" height="30" as="geometry"/>
                </mxCell>
                <mxCell id="0Q4chrJ4-TKzll_FZwnO-12" value="1" style="text;html=1;align=center;verticalAlign=middle;resizable=0;points=[];autosize=1;strokeColor=none;fontSize=18;fontColor=#000000;" vertex="1" parent="2v2k3Q8E73bp4hUca9CG-1">
                    <mxGeometry x="185" y="145" width="30" height="30" as="geometry"/>
                </mxCell>
                <mxCell id="0Q4chrJ4-TKzll_FZwnO-13" value="2" style="text;html=1;align=center;verticalAlign=middle;resizable=0;points=[];autosize=1;strokeColor=none;fontSize=18;fontColor=#000000;" vertex="1" parent="2v2k3Q8E73bp4hUca9CG-1">
                    <mxGeometry x="305" y="145" width="30" height="30" as="geometry"/>
                </mxCell>
                <mxCell id="0Q4chrJ4-TKzll_FZwnO-14" value="3" style="text;html=1;align=center;verticalAlign=middle;resizable=0;points=[];autosize=1;strokeColor=none;fontSize=18;fontColor=#000000;" vertex="1" parent="2v2k3Q8E73bp4hUca9CG-1">
                    <mxGeometry x="145" y="215" width="30" height="30" as="geometry"/>
                </mxCell>
                <mxCell id="0Q4chrJ4-TKzll_FZwnO-15" value="4" style="text;html=1;align=center;verticalAlign=middle;resizable=0;points=[];autosize=1;strokeColor=none;fontSize=18;fontColor=#000000;" vertex="1" parent="2v2k3Q8E73bp4hUca9CG-1">
                    <mxGeometry x="225" y="215" width="30" height="30" as="geometry"/>
                </mxCell>
                <mxCell id="0Q4chrJ4-TKzll_FZwnO-16" value="5" style="text;html=1;align=center;verticalAlign=middle;resizable=0;points=[];autosize=1;strokeColor=none;fontSize=18;fontColor=#000000;" vertex="1" parent="2v2k3Q8E73bp4hUca9CG-1">
                    <mxGeometry x="275" y="215" width="30" height="30" as="geometry"/>
                </mxCell>
            </root>
        </mxGraphModel>
    </diagram>
    <diagram name="heapify-3" id="0Am5vCtE7NaJ7SWUL5Bf">
        <mxGraphModel dx="1217" dy="570" grid="1" gridSize="10" guides="1" tooltips="1" connect="1" arrows="1" fold="1" page="1" pageScale="1" pageWidth="850" pageHeight="1100" math="0" shadow="0">
            <root>
                <mxCell id="gFVivKkBL9fIjCb3cV3K-0"/>
                <mxCell id="gFVivKkBL9fIjCb3cV3K-1" parent="gFVivKkBL9fIjCb3cV3K-0"/>
                <mxCell id="gFVivKkBL9fIjCb3cV3K-2" style="rounded=0;orthogonalLoop=1;jettySize=auto;html=1;entryX=1;entryY=0;entryDx=0;entryDy=0;fontSize=22;endArrow=none;endFill=0;fontColor=#000000;" edge="1" parent="gFVivKkBL9fIjCb3cV3K-1" source="gFVivKkBL9fIjCb3cV3K-4" target="gFVivKkBL9fIjCb3cV3K-7">
                    <mxGeometry relative="1" as="geometry"/>
                </mxCell>
                <mxCell id="gFVivKkBL9fIjCb3cV3K-3" style="edgeStyle=none;rounded=0;orthogonalLoop=1;jettySize=auto;html=1;fontSize=22;endArrow=none;endFill=0;fontColor=#000000;" edge="1" parent="gFVivKkBL9fIjCb3cV3K-1" source="gFVivKkBL9fIjCb3cV3K-4" target="gFVivKkBL9fIjCb3cV3K-9">
                    <mxGeometry relative="1" as="geometry"/>
                </mxCell>
                <mxCell id="gFVivKkBL9fIjCb3cV3K-4" value="3" style="ellipse;whiteSpace=wrap;html=1;aspect=fixed;sketch=1;fillColor=#60a917;strokeColor=#2D7600;fontSize=22;fontColor=#000000;" vertex="1" parent="gFVivKkBL9fIjCb3cV3K-1">
                    <mxGeometry x="240" y="120" width="40" height="40" as="geometry"/>
                </mxCell>
                <mxCell id="gFVivKkBL9fIjCb3cV3K-5" style="edgeStyle=none;rounded=0;orthogonalLoop=1;jettySize=auto;html=1;entryX=1;entryY=0;entryDx=0;entryDy=0;fontSize=22;endArrow=none;endFill=0;fontColor=#000000;" edge="1" parent="gFVivKkBL9fIjCb3cV3K-1" source="gFVivKkBL9fIjCb3cV3K-7" target="gFVivKkBL9fIjCb3cV3K-10">
                    <mxGeometry relative="1" as="geometry"/>
                </mxCell>
                <mxCell id="gFVivKkBL9fIjCb3cV3K-6" style="edgeStyle=none;rounded=0;orthogonalLoop=1;jettySize=auto;html=1;entryX=0.284;entryY=0.086;entryDx=0;entryDy=0;fontSize=22;endArrow=none;endFill=0;entryPerimeter=0;fontColor=#000000;" edge="1" parent="gFVivKkBL9fIjCb3cV3K-1" source="gFVivKkBL9fIjCb3cV3K-7" target="gFVivKkBL9fIjCb3cV3K-11">
                    <mxGeometry relative="1" as="geometry"/>
                </mxCell>
                <mxCell id="gFVivKkBL9fIjCb3cV3K-7" value="9" style="ellipse;whiteSpace=wrap;html=1;aspect=fixed;sketch=1;fillColor=#60a917;strokeColor=#2D7600;fontSize=22;fontColor=#000000;" vertex="1" parent="gFVivKkBL9fIjCb3cV3K-1">
                    <mxGeometry x="180" y="180" width="40" height="40" as="geometry"/>
                </mxCell>
                <mxCell id="gFVivKkBL9fIjCb3cV3K-8" style="edgeStyle=none;rounded=0;orthogonalLoop=1;jettySize=auto;html=1;fontSize=22;endArrow=none;endFill=0;fontColor=#000000;" edge="1" parent="gFVivKkBL9fIjCb3cV3K-1" source="gFVivKkBL9fIjCb3cV3K-9" target="gFVivKkBL9fIjCb3cV3K-12">
                    <mxGeometry relative="1" as="geometry"/>
                </mxCell>
                <mxCell id="gFVivKkBL9fIjCb3cV3K-9" value="2" style="ellipse;whiteSpace=wrap;html=1;aspect=fixed;sketch=1;fillColor=#1ba1e2;strokeColor=#006EAF;fontSize=22;fontColor=#000000;" vertex="1" parent="gFVivKkBL9fIjCb3cV3K-1">
                    <mxGeometry x="300" y="180" width="40" height="40" as="geometry"/>
                </mxCell>
                <mxCell id="gFVivKkBL9fIjCb3cV3K-10" value="1" style="ellipse;whiteSpace=wrap;html=1;aspect=fixed;sketch=1;fillColor=#60a917;strokeColor=#2D7600;fontSize=22;fontColor=#000000;" vertex="1" parent="gFVivKkBL9fIjCb3cV3K-1">
                    <mxGeometry x="140" y="250" width="40" height="40" as="geometry"/>
                </mxCell>
                <mxCell id="gFVivKkBL9fIjCb3cV3K-11" value="4" style="ellipse;whiteSpace=wrap;html=1;aspect=fixed;sketch=1;fillColor=#60a917;strokeColor=#2D7600;fontSize=22;fontColor=#000000;" vertex="1" parent="gFVivKkBL9fIjCb3cV3K-1">
                    <mxGeometry x="220" y="250" width="40" height="40" as="geometry"/>
                </mxCell>
                <mxCell id="gFVivKkBL9fIjCb3cV3K-12" value="5" style="ellipse;whiteSpace=wrap;html=1;aspect=fixed;sketch=1;fillColor=#60a917;strokeColor=#2D7600;fontSize=22;fontColor=#000000;" vertex="1" parent="gFVivKkBL9fIjCb3cV3K-1">
                    <mxGeometry x="270" y="250" width="40" height="40" as="geometry"/>
                </mxCell>
                <mxCell id="gFVivKkBL9fIjCb3cV3K-13" value="0" style="text;html=1;align=center;verticalAlign=middle;resizable=0;points=[];autosize=1;strokeColor=none;fontSize=18;fontColor=#000000;" vertex="1" parent="gFVivKkBL9fIjCb3cV3K-1">
                    <mxGeometry x="245" y="85" width="30" height="30" as="geometry"/>
                </mxCell>
                <mxCell id="gFVivKkBL9fIjCb3cV3K-14" value="1" style="text;html=1;align=center;verticalAlign=middle;resizable=0;points=[];autosize=1;strokeColor=none;fontSize=18;fontColor=#000000;" vertex="1" parent="gFVivKkBL9fIjCb3cV3K-1">
                    <mxGeometry x="185" y="145" width="30" height="30" as="geometry"/>
                </mxCell>
                <mxCell id="gFVivKkBL9fIjCb3cV3K-15" value="2" style="text;html=1;align=center;verticalAlign=middle;resizable=0;points=[];autosize=1;strokeColor=none;fontSize=18;fontColor=#000000;" vertex="1" parent="gFVivKkBL9fIjCb3cV3K-1">
                    <mxGeometry x="305" y="145" width="30" height="30" as="geometry"/>
                </mxCell>
                <mxCell id="gFVivKkBL9fIjCb3cV3K-16" value="3" style="text;html=1;align=center;verticalAlign=middle;resizable=0;points=[];autosize=1;strokeColor=none;fontSize=18;fontColor=#000000;" vertex="1" parent="gFVivKkBL9fIjCb3cV3K-1">
                    <mxGeometry x="145" y="215" width="30" height="30" as="geometry"/>
                </mxCell>
                <mxCell id="gFVivKkBL9fIjCb3cV3K-17" value="4" style="text;html=1;align=center;verticalAlign=middle;resizable=0;points=[];autosize=1;strokeColor=none;fontSize=18;fontColor=#000000;" vertex="1" parent="gFVivKkBL9fIjCb3cV3K-1">
                    <mxGeometry x="225" y="215" width="30" height="30" as="geometry"/>
                </mxCell>
                <mxCell id="gFVivKkBL9fIjCb3cV3K-18" value="5" style="text;html=1;align=center;verticalAlign=middle;resizable=0;points=[];autosize=1;strokeColor=none;fontSize=18;fontColor=#000000;" vertex="1" parent="gFVivKkBL9fIjCb3cV3K-1">
                    <mxGeometry x="275" y="215" width="30" height="30" as="geometry"/>
                </mxCell>
            </root>
        </mxGraphModel>
    </diagram>
    <diagram name="heapify-4" id="KrJlNAA3ZOlpuRUZjxUJ">
        <mxGraphModel dx="1217" dy="570" grid="1" gridSize="10" guides="1" tooltips="1" connect="1" arrows="1" fold="1" page="1" pageScale="1" pageWidth="850" pageHeight="1100" math="0" shadow="0">
            <root>
                <mxCell id="R86hi_7K1BGF9EHpucJD-0"/>
                <mxCell id="R86hi_7K1BGF9EHpucJD-1" parent="R86hi_7K1BGF9EHpucJD-0"/>
                <mxCell id="R86hi_7K1BGF9EHpucJD-2" style="rounded=0;orthogonalLoop=1;jettySize=auto;html=1;entryX=1;entryY=0;entryDx=0;entryDy=0;fontSize=22;endArrow=none;endFill=0;fontColor=#000000;" edge="1" parent="R86hi_7K1BGF9EHpucJD-1" source="R86hi_7K1BGF9EHpucJD-4" target="R86hi_7K1BGF9EHpucJD-7">
                    <mxGeometry relative="1" as="geometry"/>
                </mxCell>
                <mxCell id="R86hi_7K1BGF9EHpucJD-3" style="edgeStyle=none;rounded=0;orthogonalLoop=1;jettySize=auto;html=1;fontSize=22;endArrow=none;endFill=0;fontColor=#000000;" edge="1" parent="R86hi_7K1BGF9EHpucJD-1" source="R86hi_7K1BGF9EHpucJD-4" target="R86hi_7K1BGF9EHpucJD-9">
                    <mxGeometry relative="1" as="geometry"/>
                </mxCell>
                <mxCell id="R86hi_7K1BGF9EHpucJD-4" value="3" style="ellipse;whiteSpace=wrap;html=1;aspect=fixed;sketch=1;fillColor=#60a917;strokeColor=#2D7600;fontSize=22;fontColor=#000000;" vertex="1" parent="R86hi_7K1BGF9EHpucJD-1">
                    <mxGeometry x="240" y="120" width="40" height="40" as="geometry"/>
                </mxCell>
                <mxCell id="R86hi_7K1BGF9EHpucJD-5" style="edgeStyle=none;rounded=0;orthogonalLoop=1;jettySize=auto;html=1;entryX=1;entryY=0;entryDx=0;entryDy=0;fontSize=22;endArrow=none;endFill=0;fontColor=#000000;" edge="1" parent="R86hi_7K1BGF9EHpucJD-1" source="R86hi_7K1BGF9EHpucJD-7" target="R86hi_7K1BGF9EHpucJD-10">
                    <mxGeometry relative="1" as="geometry"/>
                </mxCell>
                <mxCell id="R86hi_7K1BGF9EHpucJD-6" style="edgeStyle=none;rounded=0;orthogonalLoop=1;jettySize=auto;html=1;entryX=0.284;entryY=0.086;entryDx=0;entryDy=0;fontSize=22;endArrow=none;endFill=0;entryPerimeter=0;fontColor=#000000;" edge="1" parent="R86hi_7K1BGF9EHpucJD-1" source="R86hi_7K1BGF9EHpucJD-7" target="R86hi_7K1BGF9EHpucJD-11">
                    <mxGeometry relative="1" as="geometry"/>
                </mxCell>
                <mxCell id="R86hi_7K1BGF9EHpucJD-7" value="9" style="ellipse;whiteSpace=wrap;html=1;aspect=fixed;sketch=1;fillColor=#60a917;strokeColor=#2D7600;fontSize=22;fontColor=#000000;" vertex="1" parent="R86hi_7K1BGF9EHpucJD-1">
                    <mxGeometry x="180" y="180" width="40" height="40" as="geometry"/>
                </mxCell>
                <mxCell id="R86hi_7K1BGF9EHpucJD-8" style="edgeStyle=none;rounded=0;orthogonalLoop=1;jettySize=auto;html=1;fontSize=22;endArrow=none;endFill=0;fontColor=#000000;" edge="1" parent="R86hi_7K1BGF9EHpucJD-1" source="R86hi_7K1BGF9EHpucJD-9" target="R86hi_7K1BGF9EHpucJD-12">
                    <mxGeometry relative="1" as="geometry"/>
                </mxCell>
                <mxCell id="R86hi_7K1BGF9EHpucJD-9" value="5" style="ellipse;whiteSpace=wrap;html=1;aspect=fixed;sketch=1;fillColor=#1ba1e2;strokeColor=#006EAF;fontSize=22;fontColor=#000000;" vertex="1" parent="R86hi_7K1BGF9EHpucJD-1">
                    <mxGeometry x="300" y="180" width="40" height="40" as="geometry"/>
                </mxCell>
                <mxCell id="R86hi_7K1BGF9EHpucJD-10" value="1" style="ellipse;whiteSpace=wrap;html=1;aspect=fixed;sketch=1;fillColor=#60a917;strokeColor=#2D7600;fontSize=22;fontColor=#000000;" vertex="1" parent="R86hi_7K1BGF9EHpucJD-1">
                    <mxGeometry x="140" y="250" width="40" height="40" as="geometry"/>
                </mxCell>
                <mxCell id="R86hi_7K1BGF9EHpucJD-11" value="4" style="ellipse;whiteSpace=wrap;html=1;aspect=fixed;sketch=1;fillColor=#60a917;strokeColor=#2D7600;fontSize=22;fontColor=#000000;" vertex="1" parent="R86hi_7K1BGF9EHpucJD-1">
                    <mxGeometry x="220" y="250" width="40" height="40" as="geometry"/>
                </mxCell>
                <mxCell id="R86hi_7K1BGF9EHpucJD-12" value="2" style="ellipse;whiteSpace=wrap;html=1;aspect=fixed;sketch=1;fillColor=#1ba1e2;strokeColor=#006EAF;fontSize=22;fontColor=#000000;" vertex="1" parent="R86hi_7K1BGF9EHpucJD-1">
                    <mxGeometry x="270" y="250" width="40" height="40" as="geometry"/>
                </mxCell>
                <mxCell id="R86hi_7K1BGF9EHpucJD-13" value="0" style="text;html=1;align=center;verticalAlign=middle;resizable=0;points=[];autosize=1;strokeColor=none;fontSize=18;fontColor=#000000;" vertex="1" parent="R86hi_7K1BGF9EHpucJD-1">
                    <mxGeometry x="245" y="85" width="30" height="30" as="geometry"/>
                </mxCell>
                <mxCell id="R86hi_7K1BGF9EHpucJD-14" value="1" style="text;html=1;align=center;verticalAlign=middle;resizable=0;points=[];autosize=1;strokeColor=none;fontSize=18;fontColor=#000000;" vertex="1" parent="R86hi_7K1BGF9EHpucJD-1">
                    <mxGeometry x="185" y="145" width="30" height="30" as="geometry"/>
                </mxCell>
                <mxCell id="R86hi_7K1BGF9EHpucJD-15" value="2" style="text;html=1;align=center;verticalAlign=middle;resizable=0;points=[];autosize=1;strokeColor=none;fontSize=18;fontColor=#000000;" vertex="1" parent="R86hi_7K1BGF9EHpucJD-1">
                    <mxGeometry x="305" y="145" width="30" height="30" as="geometry"/>
                </mxCell>
                <mxCell id="R86hi_7K1BGF9EHpucJD-16" value="3" style="text;html=1;align=center;verticalAlign=middle;resizable=0;points=[];autosize=1;strokeColor=none;fontSize=18;fontColor=#000000;" vertex="1" parent="R86hi_7K1BGF9EHpucJD-1">
                    <mxGeometry x="145" y="215" width="30" height="30" as="geometry"/>
                </mxCell>
                <mxCell id="R86hi_7K1BGF9EHpucJD-17" value="4" style="text;html=1;align=center;verticalAlign=middle;resizable=0;points=[];autosize=1;strokeColor=none;fontSize=18;fontColor=#000000;" vertex="1" parent="R86hi_7K1BGF9EHpucJD-1">
                    <mxGeometry x="225" y="215" width="30" height="30" as="geometry"/>
                </mxCell>
                <mxCell id="R86hi_7K1BGF9EHpucJD-18" value="5" style="text;html=1;align=center;verticalAlign=middle;resizable=0;points=[];autosize=1;strokeColor=none;fontSize=18;fontColor=#000000;" vertex="1" parent="R86hi_7K1BGF9EHpucJD-1">
                    <mxGeometry x="275" y="215" width="30" height="30" as="geometry"/>
                </mxCell>
            </root>
        </mxGraphModel>
    </diagram>
</mxfile>